<svg id="Layer_1" data-name="Layer 1" xmlns="http://www.w3.org/2000/svg" width="2.985in" height="0.948in" viewBox="0 0 214.918 68.287"><defs><style>.cls-1{fill:#f49e14;}.cls-2{font-size:48.495px;}.cls-2,.cls-6{font-family:BeyondMars, Beyond Mars;}.cls-3{letter-spacing:0.022em;}.cls-4{letter-spacing:0.007em;}.cls-5{letter-spacing:0.019em;}.cls-6{font-size:6.578px;}.cls-7{letter-spacing:-0.008em;}.cls-8{letter-spacing:0.093em;}.cls-9{letter-spacing:-0.04em;}.cls-10{letter-spacing:0.012em;}.cls-11{letter-spacing:-0.008em;}.cls-12{letter-spacing:-0.06em;}.cls-13{letter-spacing:-0.199em;}.cls-14{letter-spacing:-0.034em;}.cls-15{letter-spacing:0.003em;}.cls-16{letter-spacing:0em;}.cls-17{letter-spacing:0.093em;}.cls-18{letter-spacing:0.019em;}.cls-19{letter-spacing:0.022em;}.cls-20{letter-spacing:-0.043em;}.cls-21{letter-spacing:-0.195em;}.cls-22{letter-spacing:0.018em;}.cls-23{letter-spacing:0em;}.cls-24{letter-spacing:0.093em;}.cls-25{letter-spacing:-0.034em;}.cls-26{letter-spacing:-0.007em;}.cls-27{letter-spacing:-0.022em;}.cls-28{letter-spacing:-0.025em;}</style></defs><path d="M88.491,143.994h0a16.549,16.549,0,1,1-33.1,0H37.8a34.144,34.144,0,1,0,68.287,0H88.491Z" transform="translate(-37.799 -109.851)"/><path class="cls-1" d="M39.822,132.4H60.144a16.535,16.535,0,0,0-3.913,6.418H38.189A33.981,33.981,0,0,1,39.822,132.4Z" transform="translate(-37.799 -109.851)"/><path class="cls-1" d="M46.889,120.806a34.233,34.233,0,0,0-4.684,6.418H101.68A34.233,34.233,0,0,0,97,120.806Z" transform="translate(-37.799 -109.851)"/><path class="cls-1" d="M90.951,115.63a34.151,34.151,0,0,0-38.017,0Z" transform="translate(-37.799 -109.851)"/><path class="cls-1" d="M104.063,132.4H83.742a16.545,16.545,0,0,1,3.912,6.418H105.7A33.83,33.83,0,0,0,104.063,132.4Z" transform="translate(-37.799 -109.851)"/><text class="cls-2" transform="translate(75.826 49.298)"><tspan class="cls-3">H</tspan><tspan class="cls-4" x="30.712" y="0">O</tspan><tspan class="cls-5" x="69.807" y="0">O</tspan><tspan x="109.445" y="0">P</tspan></text><text class="cls-6" transform="translate(75.665 58.967)"><tspan class="cls-7">C</tspan><tspan class="cls-8" x="4.172" y="0">I</tspan><tspan class="cls-9" x="5.926" y="0">R</tspan><tspan class="cls-7" x="9.893" y="0">C</tspan><tspan class="cls-10" x="14.065" y="0">L</tspan><tspan x="16.93" y="0">E </tspan><tspan class="cls-11" x="21.979" y="0">C</tspan><tspan x="26.151" y="0">I </tspan><tspan class="cls-12" x="29.145" y="0">S</tspan><tspan class="cls-13" x="32.087" y="0">TA</tspan><tspan class="cls-14" x="38.748" y="0">T</tspan><tspan class="cls-15" x="42.548" y="0">U</tspan><tspan class="cls-16" x="46.592" y="0">S </tspan><tspan class="cls-17" x="51.775" y="0">IN</tspan><tspan class="cls-18" x="58.16" y="0">D</tspan><tspan class="cls-19" x="62.921" y="0">I</tspan><tspan class="cls-20" x="64.208" y="0">C</tspan><tspan class="cls-13" x="68.152" y="0">A</tspan><tspan class="cls-21" x="72.1" y="0">T</tspan><tspan class="cls-22" x="74.837" y="0">O</tspan><tspan class="cls-23" x="80.213" y="0">R </tspan><tspan class="cls-17" x="86.29" y="0">I</tspan><tspan class="cls-16" x="88.044" y="0">N </tspan><tspan class="cls-14" x="93.915" y="0">T</tspan><tspan class="cls-24" x="97.715" y="0">H</tspan><tspan x="102.346" y="0">E </tspan><tspan class="cls-25" x="107.396" y="0">T</tspan><tspan class="cls-26" x="111.194" y="0">ER</tspan><tspan class="cls-24" x="118.534" y="0">MI</tspan><tspan class="cls-27" x="126.152" y="0">N</tspan><tspan class="cls-28" x="130.029" y="0">A</tspan><tspan x="135.12" y="0">L</tspan></text></svg>